<?xml version="1.0" encoding="utf-8"?>
<!-- Generator: Adobe Illustrator 16.0.0, SVG Export Plug-In . SVG Version: 6.00 Build 0)  -->
<!DOCTYPE svg PUBLIC "-//W3C//DTD SVG 1.1//EN" "http://www.w3.org/Graphics/SVG/1.1/DTD/svg11.dtd">
<svg version="1.1" id="Layer_1" xmlns="http://www.w3.org/2000/svg" xmlns:xlink="http://www.w3.org/1999/xlink" x="0px" y="0px"
	 width="38.5px" height="36.5px" viewBox="0 0 38.5 36.5" enable-background="new 0 0 38.5 36.5" xml:space="preserve">
<g>
	<path fill="#00ABFF" d="M23.519,4.22c-0.582-0.582-1.533-0.582-2.114,0l-2.437,2.437c-0.582,0.582-0.582,1.533,0,2.115l8.114,8.114
		c0.582,0.582,0.582,1.533,0,2.114l-8.114,8.114c-0.582,0.582-0.582,1.533,0,2.115l2.437,2.437c0.581,0.582,1.533,0.582,2.114,0
		L36.185,19c0.582-0.581,0.582-1.533,0-2.114L23.519,4.22z"/>
	<path fill="#00ABFF" d="M8.079,4.22c-0.581-0.582-1.533-0.582-2.114,0L3.527,6.657c-0.582,0.582-0.582,1.533,0,2.115l8.114,8.114
		c0.582,0.582,0.582,1.533,0,2.114l-8.114,8.114c-0.582,0.582-0.582,1.533,0,2.115l2.437,2.437c0.582,0.582,1.533,0.582,2.114,0
		L20.745,19c0.581-0.581,0.581-1.533,0-2.115L8.079,4.22z"/>
</g>
</svg>
